<svg xmlns="http://www.w3.org/2000/svg" xmlns:xlink="http://www.w3.org/1999/xlink" viewBox="0 0 959.52 513.84"><defs><style>.cls-1,.cls-10,.cls-2,.cls-5,.cls-6,.cls-7{fill:none;}.cls-1{clip-rule:evenodd;}.cls-2,.cls-4{fill-rule:evenodd;}.cls-3{fill:#ea502f;}.cls-4,.cls-9{fill:#fff;}.cls-10,.cls-5,.cls-6{stroke:#ea502f;}.cls-10,.cls-5,.cls-6,.cls-7{stroke-miterlimit:10;}.cls-5{stroke-width:5px;}.cls-6{stroke-width:84px;}.cls-7{stroke:#fff;}.cls-10,.cls-7{stroke-width:4px;}.cls-8{clip-path:url(#clip-path);}</style><clipPath id="clip-path" transform="translate(-32.16 -216.12)"><polyline class="cls-1" points="0 0 1023.96 0 1023.96 768 0 768"/></clipPath></defs><g id="Layer_2" data-name="Layer 2"><g id="Layer_3" data-name="Layer 3"><rect class="cls-3" y="269.4" width="959.52" height="244.44"/><path class="cls-4" d="M984,454.69a27.75,27.75,0,0,0-19.4,1.87c-6.22,3.05-11.17,8.44-17.78,10.78a23.47,23.47,0,0,1-30.6-16.52,28.24,28.24,0,0,1-37.38,26.6,25.66,25.66,0,0,1-17.31-22.61A30.71,30.71,0,0,1,815,462a28.27,28.27,0,0,1-9.16-26.59l-20,27.5a26.29,26.29,0,0,0,5.64-25,25.7,25.7,0,0,0-10.18-14,47.06,47.06,0,0,1-18.93,38.24,29.88,29.88,0,0,0,1.67-24.73,29.41,29.41,0,0,0-10.88-13.84,82.47,82.47,0,0,1-11.11,40.7,42.39,42.39,0,0,0-9.19-42,41.89,41.89,0,0,0-35.45-13.12,60.31,60.31,0,0,1-16.78,102.21" transform="translate(-32.16 -216.12)"/><path class="cls-5" d="M984,454.69a27.75,27.75,0,0,0-19.4,1.87c-6.22,3.05-11.17,8.44-17.78,10.78a23.47,23.47,0,0,1-30.6-16.52,28.24,28.24,0,0,1-37.38,26.6,25.66,25.66,0,0,1-17.31-22.61A30.71,30.71,0,0,1,815,462a28.27,28.27,0,0,1-9.16-26.59l-20,27.5a26.29,26.29,0,0,0,5.64-25,25.7,25.7,0,0,0-10.18-14,47.06,47.06,0,0,1-18.93,38.24,29.88,29.88,0,0,0,1.67-24.73,29.41,29.41,0,0,0-10.88-13.84,82.47,82.47,0,0,1-11.11,40.7,42.39,42.39,0,0,0-9.19-42,41.89,41.89,0,0,0-35.45-13.12,60.31,60.31,0,0,1-16.78,102.21" transform="translate(-32.16 -216.12)"/><path class="cls-4" d="M414.72,460.18a18.43,18.43,0,0,0-7.8-12.43,18.13,18.13,0,0,0-10.1-3.2,18.49,18.49,0,0,1-10,29.9,16.79,16.79,0,0,1-19.32-9.88,19,19,0,0,1-37.29-2.09,18.46,18.46,0,0,1-19.59,21.42A18,18,0,0,1,294.22,463a27.72,27.72,0,0,1-15.35,22.51c-4.59-5.82-6.45-13-7.9-20.27-2.49-12.41,3.7-23.25,12.47-31.15A45.19,45.19,0,0,0,259,453.94a44.59,44.59,0,0,0-6,18.71l-7-22L234.25,480a42.47,42.47,0,0,0-20.53-54.66,39.63,39.63,0,0,0-31.91-1.27A64.36,64.36,0,0,1,117.6,533" transform="translate(-32.16 -216.12)"/><path class="cls-5" d="M414.72,460.18a18.43,18.43,0,0,0-7.8-12.43,18.13,18.13,0,0,0-10.1-3.2,18.49,18.49,0,0,1-10,29.9,16.79,16.79,0,0,1-19.32-9.88,19,19,0,0,1-37.29-2.09,18.46,18.46,0,0,1-19.59,21.42A18,18,0,0,1,294.22,463a27.72,27.72,0,0,1-15.35,22.51c-4.59-5.82-6.45-13-7.9-20.27-2.49-12.41,3.7-23.25,12.47-31.15A45.19,45.19,0,0,0,259,453.94a44.59,44.59,0,0,0-6,18.71l-7-22L234.25,480a42.47,42.47,0,0,0-20.53-54.66,39.63,39.63,0,0,0-31.91-1.27A64.36,64.36,0,0,1,117.6,533" transform="translate(-32.16 -216.12)"/><path class="cls-4" d="M718.92,454.35A37.8,37.8,0,0,1,666.09,431a34.81,34.81,0,0,1-52.77,20.51" transform="translate(-32.16 -216.12)"/><path class="cls-5" d="M718.92,454.35A37.8,37.8,0,0,1,666.09,431a34.81,34.81,0,0,1-52.77,20.51" transform="translate(-32.16 -216.12)"/><path class="cls-4" d="M43.44,489.36a76.53,76.53,0,0,0,20.64-10.63A76.26,76.26,0,0,0,80.53,462.5,13.3,13.3,0,0,0,90,475.42a14.92,14.92,0,0,0,18.86-17.49,15.19,15.19,0,0,0,9.07,21,16.67,16.67,0,0,0,20.6-21.87A43.95,43.95,0,0,0,202.92,480" transform="translate(-32.16 -216.12)"/><path class="cls-5" d="M43.44,489.36a76.53,76.53,0,0,0,20.64-10.63A76.26,76.26,0,0,0,80.53,462.5,13.3,13.3,0,0,0,90,475.42a14.92,14.92,0,0,0,18.86-17.49,15.19,15.19,0,0,0,9.07,21,16.67,16.67,0,0,0,20.6-21.87A43.95,43.95,0,0,0,202.92,480" transform="translate(-32.16 -216.12)"/><path class="cls-4" d="M664.92,553.21a27.75,27.75,0,0,1,19.4,1.87c6.22,3,11.17,8.44,17.78,10.78a23.47,23.47,0,0,0,30.6-16.52,28.24,28.24,0,0,0,37.38,26.6,25.66,25.66,0,0,0,17.31-22.61,30.71,30.71,0,0,0,46.51,7.23A28.27,28.27,0,0,0,843.06,534l20,27.5a26.29,26.29,0,0,1-5.64-25,25.7,25.7,0,0,1,10.18-14,47.06,47.06,0,0,0,18.93,38.24A29.88,29.88,0,0,1,884.87,536a29.41,29.41,0,0,1,10.88-13.84,82.47,82.47,0,0,0,11.11,40.7,42.39,42.39,0,0,1,9.19-42,41.89,41.89,0,0,1,35.45-13.12A60.31,60.31,0,0,0,968.28,610" transform="translate(-32.16 -216.12)"/><path class="cls-5" d="M664.92,553.21a27.75,27.75,0,0,1,19.4,1.87c6.22,3,11.17,8.44,17.78,10.78a23.47,23.47,0,0,0,30.6-16.52,28.24,28.24,0,0,0,37.38,26.6,25.66,25.66,0,0,0,17.31-22.61,30.71,30.71,0,0,0,46.51,7.23A28.27,28.27,0,0,0,843.06,534l20,27.5a26.29,26.29,0,0,1-5.64-25,25.7,25.7,0,0,1,10.18-14,47.06,47.06,0,0,0,18.93,38.24A29.88,29.88,0,0,1,884.87,536a29.41,29.41,0,0,1,10.88-13.84,82.47,82.47,0,0,0,11.11,40.7,42.39,42.39,0,0,1,9.19-42,41.89,41.89,0,0,1,35.45-13.12A60.31,60.31,0,0,0,968.28,610" transform="translate(-32.16 -216.12)"/><path class="cls-4" d="M351.36,580.45a27.74,27.74,0,0,0-19.4,1.87c-6.23,3-11.19,8.44-17.79,10.78a23.49,23.49,0,0,1-30.62-16.52,28.25,28.25,0,0,1-37.4,26.6,25.68,25.68,0,0,1-17.31-22.61,30.73,30.73,0,0,1-46.53,7.23,28.27,28.27,0,0,1-9.16-26.59l-20,27.5a26.3,26.3,0,0,0,5.65-25,25.76,25.76,0,0,0-10.19-14A47,47,0,0,1,129.65,588a29.85,29.85,0,0,0,1.67-24.73,29.37,29.37,0,0,0-10.89-13.84,81.32,81.32,0,0,1-2.83,20.82,82.92,82.92,0,0,1-8.28,19.88,42.36,42.36,0,0,0-9.19-42A41.9,41.9,0,0,0,64.67,535a60,60,0,0,1,21.1,52.28A60.55,60.55,0,0,1,47.88,637.2" transform="translate(-32.16 -216.12)"/><path class="cls-5" d="M351.36,580.45a27.74,27.74,0,0,0-19.4,1.87c-6.23,3-11.19,8.44-17.79,10.78a23.49,23.49,0,0,1-30.62-16.52,28.25,28.25,0,0,1-37.4,26.6,25.68,25.68,0,0,1-17.31-22.61,30.73,30.73,0,0,1-46.53,7.23,28.27,28.27,0,0,1-9.16-26.59l-20,27.5a26.3,26.3,0,0,0,5.65-25,25.76,25.76,0,0,0-10.19-14A47,47,0,0,1,129.65,588a29.85,29.85,0,0,0,1.67-24.73,29.37,29.37,0,0,0-10.89-13.84,81.32,81.32,0,0,1-2.83,20.82,82.92,82.92,0,0,1-8.28,19.88,42.36,42.36,0,0,0-9.19-42A41.9,41.9,0,0,0,64.67,535a60,60,0,0,1,21.1,52.28A60.55,60.55,0,0,1,47.88,637.2" transform="translate(-32.16 -216.12)"/><path class="cls-4" d="M43.44,521.4a76.53,76.53,0,0,0,20.64-10.63,76.26,76.26,0,0,0,16.45-16.23A13.3,13.3,0,0,0,90,507.46,14.92,14.92,0,0,0,108.85,490a15.19,15.19,0,0,0,9.07,21,16.67,16.67,0,0,0,20.6-21.87A43.95,43.95,0,0,0,202.92,512" transform="translate(-32.16 -216.12)"/><path class="cls-5" d="M43.44,521.4a76.53,76.53,0,0,0,20.64-10.63,76.26,76.26,0,0,0,16.45-16.23A13.3,13.3,0,0,0,90,507.46,14.92,14.92,0,0,0,108.85,490a15.19,15.19,0,0,0,9.07,21,16.67,16.67,0,0,0,20.6-21.87A43.95,43.95,0,0,0,202.92,512" transform="translate(-32.16 -216.12)"/><path class="cls-4" d="M241.32,558.12a76.72,76.72,0,0,0,37.09-26.86,13.3,13.3,0,0,0,9.46,12.92,14.92,14.92,0,0,0,18.86-17.49,15.19,15.19,0,0,0,9.07,21,16.67,16.67,0,0,0,20.6-21.87,43.95,43.95,0,0,0,64.4,22.92" transform="translate(-32.16 -216.12)"/><path class="cls-5" d="M241.32,558.12a76.72,76.72,0,0,0,37.09-26.86,13.3,13.3,0,0,0,9.46,12.92,14.92,14.92,0,0,0,18.86-17.49,15.19,15.19,0,0,0,9.07,21,16.67,16.67,0,0,0,20.6-21.87,43.95,43.95,0,0,0,64.4,22.92" transform="translate(-32.16 -216.12)"/><path class="cls-6" d="M205.92,328a722.68,722.68,0,0,1,623.88,1.93" transform="translate(-32.16 -216.12)"/><path class="cls-7" d="M206,357.77a722.68,722.68,0,0,1,623.88,1.93" transform="translate(-32.16 -216.12)"/><g class="cls-8"><path class="cls-4" d="M801.49,655.24a76.68,76.68,0,0,0,42.18-17.79,13.29,13.29,0,0,0,6.32,14.7,14.92,14.92,0,0,0,22.31-12.77,15.15,15.15,0,0,0,4.12,22.49,16.66,16.66,0,0,0,25-16.64A44,44,0,0,0,959,682" transform="translate(-32.16 -216.12)"/></g><g class="cls-8"><path class="cls-5" d="M801.49,655.24a76.68,76.68,0,0,0,42.18-17.79,13.29,13.29,0,0,0,6.32,14.7,14.92,14.92,0,0,0,22.31-12.77,15.15,15.15,0,0,0,4.12,22.49,16.66,16.66,0,0,0,25-16.64A44,44,0,0,0,959,682" transform="translate(-32.16 -216.12)"/></g><path class="cls-4" d="M499.34,609.72A370.57,370.57,0,0,0,613.23,491.91a178.87,178.87,0,0,0-29.71-118.33,87.81,87.81,0,0,0-109.4-10.45,14.35,14.35,0,0,0-13.75,9.26l0,15.49-3.29,20a156,156,0,0,0,31.83,65,220.08,220.08,0,0,0-42,65.66,101.36,101.36,0,0,0,.1,69Z" transform="translate(-32.16 -216.12)"/><path class="cls-5" d="M499.34,609.72A370.57,370.57,0,0,0,613.23,491.91a178.87,178.87,0,0,0-29.71-118.33,87.81,87.81,0,0,0-109.4-10.45,14.35,14.35,0,0,0-13.75,9.26l0,15.49-3.29,20a156,156,0,0,0,31.83,65,220.08,220.08,0,0,0-42,65.66,101.36,101.36,0,0,0,.1,69Z" transform="translate(-32.16 -216.12)"/><path class="cls-4" d="M604.92,458.76a79.06,79.06,0,0,0,62,5q-10,6.19-19.69,12.79-5.73,3.89-11.36,7.9l-19.55-5.56a70.77,70.77,0,0,0,5,9.29,72.35,72.35,0,0,0,23.49,23.05l-33.65-17.86-3.73,6.75" transform="translate(-32.16 -216.12)"/><path class="cls-5" d="M604.92,458.76a79.06,79.06,0,0,0,62,5q-10,6.19-19.69,12.79-5.73,3.89-11.36,7.9l-19.55-5.56a70.77,70.77,0,0,0,5,9.29,72.35,72.35,0,0,0,23.49,23.05l-33.65-17.86-3.73,6.75" transform="translate(-32.16 -216.12)"/><path class="cls-4" d="M474.12,455a86.19,86.19,0,0,1-66.24,4.76q12.15,6.06,23.82,13,6,3.58,11.92,7.39L461.17,477a79.88,79.88,0,0,1-3.49,7.51,80.76,80.76,0,0,1-13.62,18.7l23.8-13.51,3.74,6.76" transform="translate(-32.16 -216.12)"/><ellipse class="cls-5" cx="489.6" cy="178.38" rx="14.52" ry="14.46"/><path class="cls-5" d="M474.12,455a86.19,86.19,0,0,1-66.24,4.76q12.15,6.06,23.82,13,6,3.58,11.92,7.39L461.17,477a79.88,79.88,0,0,1-3.49,7.51,80.76,80.76,0,0,1-13.62,18.7l23.8-13.51,3.74,6.76" transform="translate(-32.16 -216.12)"/><path class="cls-5" d="M473.76,362a99.33,99.33,0,0,1,15.75,16,100.81,100.81,0,0,1,12,19.52" transform="translate(-32.16 -216.12)"/><path class="cls-5" d="M461.52,369.24A77.12,77.12,0,0,1,479,386.65,106.93,106.93,0,0,1,491.52,410" transform="translate(-32.16 -216.12)"/><path class="cls-5" d="M461.52,386.76a17.49,17.49,0,0,1,12,9.67,44.41,44.41,0,0,1,1.84,5.15c1.56,4.8,3.66,9.42,7.1,13a21.8,21.8,0,0,0,9.82,5.89" transform="translate(-32.16 -216.12)"/><path class="cls-5" d="M531.45,409.32A25.08,25.08,0,0,1,525,440.23a24.68,24.68,0,0,1-29.2,1.5" transform="translate(-32.16 -216.12)"/><path class="cls-5" d="M541.41,419.4a24.85,24.85,0,0,1-35.61,32.3" transform="translate(-32.16 -216.12)"/><path class="cls-5" d="M552.36,446.16a29.54,29.54,0,0,1-13.79,20,30,30,0,0,1-30.49.34" transform="translate(-32.16 -216.12)"/><ellipse class="cls-9" cx="489.6" cy="178.38" rx="14.52" ry="14.46"/><circle class="cls-5" cx="486.54" cy="177.42" r="7.5"/><g class="cls-8"><path class="cls-10" d="M587.8,475.41a5.3,5.3,0,0,1-.56,6.41,5.21,5.21,0,0,1-5.31,1.47,6.52,6.52,0,0,1-1.43,7.29,6.38,6.38,0,0,1-5.17,1.76,6.43,6.43,0,0,1-1.76,6.89,6.25,6.25,0,0,1-4.58,1.58,4,4,0,0,1-1.24,5.85,3.7,3.7,0,0,1-3.39.19,4.42,4.42,0,0,1-2.6,6.25,3.94,3.94,0,0,1-2.56-.08,4.45,4.45,0,0,1-2.07,5.89,4.15,4.15,0,0,1-3.26.17,5.48,5.48,0,0,1-2.21,7.58,5.05,5.05,0,0,1-3.52.44,5.07,5.07,0,0,1-2,5.84,4.94,4.94,0,0,1-4.86.35,6.87,6.87,0,0,1-2.25,6.41,6.75,6.75,0,0,1-5.33,1.6,5.16,5.16,0,0,1-6.69,5.93,5.41,5.41,0,0,1-2.34,7.34,5,5,0,0,1-4,.23,4.74,4.74,0,0,1-3,6.7,4.25,4.25,0,0,1-3.2-.4,6,6,0,0,1-3.57,5.15,5.8,5.8,0,0,1-4.16.16" transform="translate(-32.16 -216.12)"/></g><g class="cls-8"><path class="cls-10" d="M590.8,493.68a5.3,5.3,0,0,1-.56,6.41,5.21,5.21,0,0,1-5.31,1.47,6.52,6.52,0,0,1-1.43,7.29,6.38,6.38,0,0,1-5.17,1.76,6.43,6.43,0,0,1-1.76,6.89,6.25,6.25,0,0,1-4.58,1.58,4,4,0,0,1-1.24,5.85,3.7,3.7,0,0,1-3.39.19,4.42,4.42,0,0,1-2.6,6.25,3.94,3.94,0,0,1-2.56-.08,4.45,4.45,0,0,1-2.07,5.89,4.15,4.15,0,0,1-3.26.17,5.48,5.48,0,0,1-2.21,7.58,5.05,5.05,0,0,1-3.52.44,5.07,5.07,0,0,1-2,5.84,4.94,4.94,0,0,1-4.86.35,6.87,6.87,0,0,1-2.25,6.41,6.75,6.75,0,0,1-5.33,1.6A5.16,5.16,0,0,1,530,565.5a5.41,5.41,0,0,1-2.34,7.34,5,5,0,0,1-4,.23,4.74,4.74,0,0,1-3,6.7,4.25,4.25,0,0,1-3.2-.4,5.94,5.94,0,0,1-3.57,5.14,5.75,5.75,0,0,1-4.16.17" transform="translate(-32.16 -216.12)"/></g><g class="cls-8"><path class="cls-10" d="M586.93,456.93a5.3,5.3,0,0,1-.55,6.42,5.19,5.19,0,0,1-5.31,1.46,6.55,6.55,0,0,1-1.43,7.29,6.34,6.34,0,0,1-5.17,1.76,6.41,6.41,0,0,1-1.77,6.89,6.19,6.19,0,0,1-4.57,1.59,4,4,0,0,1-1.25,5.85,3.69,3.69,0,0,1-3.39.19,4.4,4.4,0,0,1-2.59,6.24,4,4,0,0,1-2.57-.07,4.44,4.44,0,0,1-2.07,5.89,4.08,4.08,0,0,1-3.25.16,5.49,5.49,0,0,1-2.21,7.59,5.08,5.08,0,0,1-3.53.43,5,5,0,0,1-2,5.84,4.94,4.94,0,0,1-4.86.36,6.86,6.86,0,0,1-2.25,6.4,6.72,6.72,0,0,1-5.33,1.61,5.15,5.15,0,0,1-6.69,5.92,5.44,5.44,0,0,1-2.34,7.35,5.08,5.08,0,0,1-4,.23,4.75,4.75,0,0,1-3,6.7,4.25,4.25,0,0,1-3.2-.41,5.92,5.92,0,0,1-3.56,5.15,5.8,5.8,0,0,1-4.16.17" transform="translate(-32.16 -216.12)"/></g><path class="cls-9" d="M290,293l4.63,13.77q-6.15,2.09-12.28,4.29-6.74-18.82-13.43-37.67,8.89-3.19,17.84-6.15,6.69-2.21,10.63-1.88a12.41,12.41,0,0,1,6.83,2.57,11.36,11.36,0,0,1,4,5.87,11.52,11.52,0,0,1-1.42,10.08c-2,3.08-5.27,5.32-9.75,6.79Q293.47,291.81,290,293Zm-2.91-8.08,4.19-1.4c3.7-1.23,5.15-3.08,4.34-5.61s-2.87-3-6.33-1.88c-1.55.51-3.11,1-4.66,1.56Z" transform="translate(-32.16 -216.12)"/><path class="cls-9" d="M322.23,286q5.5-2.65,11.06-5.2c1.81,2.85,4.71,3.74,8.74,2.71,3.14-.8,4.52-2,4.12-3.58a2.24,2.24,0,0,0-1.57-1.67,12.21,12.21,0,0,0-4.23-.25c-7.52.55-12.59.14-15.22-1.38a10.6,10.6,0,0,1-5.14-6.5,11.51,11.51,0,0,1,2-10.33c2.35-3.24,6.4-5.64,12.11-7.1,8.67-2.22,15.18-.36,19.38,5.39q-5,2.73-10,5.53c-1.73-2.32-4.3-3.07-7.69-2.2-2.81.73-4,1.9-3.59,3.51a1.93,1.93,0,0,0,1.39,1.42,12.94,12.94,0,0,0,3.95.19,75.17,75.17,0,0,1,11.27,0A11.35,11.35,0,0,1,355,269.2a10.62,10.62,0,0,1,3.57,6A11.8,11.8,0,0,1,355.73,286c-2.74,3.23-6.77,5.5-12.11,6.87C333.86,295.36,326.79,293.18,322.23,286Z" transform="translate(-32.16 -216.12)"/><path class="cls-9" d="M401.55,239.45q-5,12.45-9.5,25,1.45,8.34,2.92,16.68c-4,.71-8.06,1.46-12.09,2.25q-1.61-8.31-3.22-16.63-9.17-10-18.76-19.68,7.19-1.54,14.38-2.95,5,5.73,9.87,11.54,2.36-7.14,4.86-14.26Q395.77,240.36,401.55,239.45Z" transform="translate(-32.16 -216.12)"/><path class="cls-9" d="M438,259.54q5.89-.3,11.78-.51c-.11,4.94-1.64,8.85-4.56,11.77A18.32,18.32,0,0,1,434,276c-5.53.65-10.21-.54-14.12-3.63s-6.36-7.74-7.26-14,.05-11.46,2.93-15.74,7.4-6.83,13.52-7.55c5.72-.68,10.28.32,13.62,2.94a17.17,17.17,0,0,1,6.22,11.11q-6,.87-12.05,1.84c-.28-2.66-1-4.53-2.26-5.59A5,5,0,0,0,430.5,244c-4.14.48-5.72,4.61-4.76,12.32q.81,6.48,2.67,8.61a5,5,0,0,0,4.65,1.8C436.41,266.37,438.05,264,438,259.54Z" transform="translate(-32.16 -216.12)"/><path class="cls-9" d="M498.81,230.84q.36,20,.76,40-6.29.14-12.56.38-.3-7.77-.59-15.54-4.91.19-9.81.45.39,7.77.81,15.54-6.29.33-12.56.78-1.41-19.94-2.79-39.89,6.65-.48,13.29-.83c.25,4.9.49,9.79.75,14.69,3.31-.18,6.63-.33,9.94-.46l-.54-14.7Q492.16,231,498.81,230.84Z" transform="translate(-32.16 -216.12)"/><path class="cls-9" d="M529.36,230.85q-.48,20-.92,40-6.29-.13-12.56-.15.07-20,.19-40Q522.73,230.71,529.36,230.85Z" transform="translate(-32.16 -216.12)"/><path class="cls-9" d="M568.42,257.55q5.82.79,11.62,1.68c-1,4.83-3.25,8.39-6.65,10.72a18.23,18.23,0,0,1-12,3c-5.53-.38-9.88-2.43-13.14-6.19s-4.77-8.78-4.49-15.1,2.17-11.25,5.77-14.93,8.5-5.33,14.62-4.91c5.72.4,10,2.23,12.77,5.42a17.22,17.22,0,0,1,4,12.08q-6.07-.27-12.14-.44.33-4-1.17-5.9a5.08,5.08,0,0,0-3.72-2.07c-4.13-.29-6.44,3.47-6.93,11.23-.27,4.35.07,7.33,1,9a5,5,0,0,0,4.22,2.63C565.61,264,567.66,261.92,568.42,257.55Z" transform="translate(-32.16 -216.12)"/><path class="cls-9" d="M644.68,268.09q-6.69-1.29-13.41-2.43Q630,273,628.73,280.41c-4-.68-8-1.34-12.07-2q3-19.77,6.1-39.52,15.47,2.35,30.85,5.39-.95,4.66-1.87,9.34-8.9-1.75-17.83-3.28l-1.11,6.4q6.8,1.17,13.58,2.46C645.82,262.2,645.25,265.14,644.68,268.09Z" transform="translate(-32.16 -216.12)"/><path class="cls-9" d="M680.28,250.12Q675.62,269.56,671,289q-6.12-1.45-12.26-2.79,4.26-19.53,8.57-39.06Q673.8,248.58,680.28,250.12Z" transform="translate(-32.16 -216.12)"/><path class="cls-9" d="M685.66,280.71q6,.48,12,1.07c.11,3.37,2.15,5.6,6.11,6.73,3.08.88,4.86.55,5.32-1a2.26,2.26,0,0,0-.5-2.24,12.22,12.22,0,0,0-3.5-2.33c-6.7-3.31-10.82-6.21-12.3-8.85a10.66,10.66,0,0,1-1.12-8.2,11.55,11.55,0,0,1,6.87-7.92c3.64-1.62,8.3-1.65,13.92-.05,8.53,2.45,13.18,7.33,13.89,14.4-3.78-.11-7.56-.18-11.33-.23-.31-2.88-2.14-4.82-5.47-5.77-2.77-.79-4.38-.37-4.83,1.23a1.94,1.94,0,0,0,.47,1.92,12.43,12.43,0,0,0,3.29,2.15,75.32,75.32,0,0,1,9.65,5.64,11.39,11.39,0,0,1,3.93,5.39,10.69,10.69,0,0,1,0,7,11.84,11.84,0,0,1-7.82,7.87c-4,1.41-8.56,1.34-13.82-.16C690.89,294.61,686,289.18,685.66,280.71Z" transform="translate(-32.16 -216.12)"/><path class="cls-9" d="M779.25,281.24q-7.41,18.57-14.79,37.16-5.9-2.34-11.82-4.55,2.73-7.29,5.47-14.57-4.64-1.72-9.29-3.4-2.64,7.32-5.26,14.64-6-2.13-11.95-4.15,6.4-18.94,12.85-37.87,6.35,2.14,12.65,4.4l-5,13.83q4.71,1.69,9.41,3.45,2.6-6.89,5.2-13.76Q773,278.77,779.25,281.24Z" transform="translate(-32.16 -216.12)"/></g></g></svg>